<svg width="24" height="24" viewBox="0 0 24 24" fill="none" xmlns="http://www.w3.org/2000/svg">
    <path d="M7.775 6.40234L5.7979 7.12254C5.3063 7.30159 4.90592 7.66859 4.68483 8.14274C4.46374 8.61694 4.44003 9.15954 4.6189 9.65119L7.99305 18.9222C8.0817 19.1657 8.21745 19.3894 8.3926 19.5805C8.5677 19.7715 8.77875 19.9262 9.01365 20.0357C9.24855 20.1452 9.5027 20.2073 9.76165 20.2185C10.0205 20.2298 10.2791 20.1899 10.5227 20.1012L16.0161 17.9326M10.9272 8.93294H15.8602M10.9272 10.9061H16.8468M10.9272 12.8793H13.8869" stroke="white" stroke-linecap="round" stroke-linejoin="round"/>
    <path fill-rule="evenodd" clip-rule="evenodd" d="M19.8069 15.8391V5.9732C19.8069 5.44985 19.599 4.94798 19.2289 4.57794C18.8589 4.20789 18.357 4 17.8337 4H9.94094C9.41764 4 8.91574 4.20789 8.54569 4.57794C8.17564 4.94798 7.96774 5.44985 7.96774 5.9732V15.8391C7.96774 16.3624 8.17564 16.8644 8.54569 17.2344C8.91574 17.6044 9.41764 17.8123 9.94094 17.8123H17.8337C18.357 17.8123 18.8589 17.6044 19.2289 17.2344C19.599 16.8644 19.8069 16.3624 19.8069 15.8391Z" stroke="white" stroke-linecap="round" stroke-linejoin="round"/>
</svg>
